<svg xmlns="http://www.w3.org/2000/svg" width="31.516" height="31.516" viewBox="0 0 31.516 31.516"><defs><style>.a{fill:#f5faff;}.b{fill:#359afe;}</style></defs><rect class="a" width="31.516" height="31.516" rx="15.758" transform="translate(0 31.516) rotate(-90)"/><g transform="translate(6.898 6.5)"><g transform="translate(6.001)"><path class="b" d="M176.6,8.666a.751.751,0,0,0-.671-.415h-1.5V.75a.75.75,0,0,0-1.5,0v7.5h-1.5a.75.75,0,0,0-.6,1.2l2.25,3c.01.013.025.017.035.029a.732.732,0,0,0,.173.145.773.773,0,0,0,.077.052.7.7,0,0,0,.629,0,.761.761,0,0,0,.077-.052.732.732,0,0,0,.173-.145c.01-.012.025-.016.035-.029l2.25-3A.749.749,0,0,0,176.6,8.666Z" transform="translate(-170.674)"/></g><g transform="translate(0 11.251)"><path class="b" d="M17.252,320a.75.75,0,0,0-.75.75V323a2.253,2.253,0,0,1-2.25,2.25H3.75A2.253,2.253,0,0,1,1.5,323v-2.25a.75.75,0,0,0-1.5,0V323a3.755,3.755,0,0,0,3.75,3.75h10.5A3.755,3.755,0,0,0,18,323v-2.25A.75.75,0,0,0,17.252,320Z" transform="translate(0 -320)"/></g></g></svg>