<svg aria-hidden="true" style="position: absolute; width: 0; height: 0; overflow: hidden;" version="1.1" xmlns="http://www.w3.org/2000/svg" xmlns:xlink="http://www.w3.org/1999/xlink">
<defs>
<symbol id="icon-how_to_vote" viewBox="0 0 24 24">
<path d="M12.75 2.297q0.281-0.281 0.703-0.281 0.516 0 0.703 0.281l4.969 4.969q0.281 0.281 0.281 0.703t-0.281 0.703l-6.375 6.328q-0.281 0.281-0.703 0.281t-0.703-0.281l-4.969-4.922q-0.281-0.281-0.281-0.703t0.281-0.703zM17.016 7.969l-3.563-3.563-4.922 4.969 3.516 3.516zM18 12.984l3 3v4.031q0 0.844-0.586 1.406t-1.43 0.563h-14.016q-0.797 0-1.383-0.586t-0.586-1.383v-4.031l3-3h0.844l1.969 2.016h-2.016l-1.781 2.016h13.969l-1.734-2.016h-1.922l1.969-2.016h0.703z"></path>
</symbol>
<symbol id="icon-news-paper" viewBox="0 0 20 20">
<path d="M16 2h4v15c0 1.657-1.343 3-3 3v0h-14c-1.657 0-3-1.343-3-3v0-17h16v2zM16 4v13c0 0.552 0.448 1 1 1v0c0.552 0 1-0.448 1-1v0-13h-2zM2 2v15c0 0.552 0.448 1 1 1v0h11.17c-0.108-0.295-0.17-0.637-0.17-0.992 0-0.003 0-0.006 0-0.008v0-15h-12zM4 10h8v2h-8v-2zM4 14h8v2h-8v-2zM4 4h8v4h-8v-4z"></path>
</symbol>
</defs>
</svg>
