<svg xmlns="http://www.w3.org/2000/svg" xmlns:xlink="http://www.w3.org/1999/xlink" viewBox="0 0 60 60">
  <defs>
    <style>
      .cls-1 {
        fill: none;
      }

      .cls-2 {
        clip-path: url(#clip-path);
      }

      .cls-3 {
        fill: #485056;
      }

      .cls-4, .cls-7 {
        fill: #fff;
      }

      .cls-5 {
        fill: #343a43;
      }

      .cls-6 {
        fill: #6fc8e9;
      }

      .cls-7 {
        fill-rule: evenodd;
      }
    </style>
    <clipPath id="clip-path">
      <path id="Path_7399" data-name="Path 7399" class="cls-1" d="M0-37.621H60v60H0Z" transform="translate(0 37.621)"/>
    </clipPath>
  </defs>
  <g id="Localizations" transform="translate(0 37.621)">
    <g id="Group_9709" data-name="Group 9709" class="cls-2" transform="translate(0 -37.621)">
      <g id="Group_9701" data-name="Group 9701" transform="translate(0 -0.001)">
        <path id="Path_7390" data-name="Path 7390" class="cls-3" d="M22.379,11.19a30,30,0,0,1-30,30,30,30,0,0,1-30-30,30,30,0,0,1,30-30,30,30,0,0,1,30,30" transform="translate(37.621 18.811)"/>
      </g>
      <g id="Group_9702" data-name="Group 9702" transform="translate(12.581 18.092)">
        <path id="Path_7391" data-name="Path 7391" class="cls-4" d="M.394,6.938a1.054,1.054,0,0,1-.748-.308,1.058,1.058,0,0,1-.309-.75V-10.608a1.054,1.054,0,0,1,.309-.748,1.054,1.054,0,0,1,.748-.308H26.733a1.053,1.053,0,0,1,.746.308,1.056,1.056,0,0,1,.311.748V5.881a1.056,1.056,0,0,1-1.057,1.057Z" transform="translate(0.663 11.664)"/>
      </g>
      <g id="Group_9703" data-name="Group 9703" transform="translate(15.948 36.694)">
        <path id="Path_7392" data-name="Path 7392" class="cls-4" d="M1.945,0H-3.269V5.215Z" transform="translate(3.269)"/>
      </g>
      <g id="Group_9704" data-name="Group 9704" transform="translate(25.182 23.842)">
        <path id="Path_7393" data-name="Path 7393" class="cls-5" d="M.5,2.147H1.27a.768.768,0,0,0,.766-.767V-.06A.757.757,0,0,0,1.811-.6.762.762,0,0,0,1.27-.827H.5ZM1.27,3.492H-.172a.673.673,0,0,1-.671-.673V-3.61H.5v1.439H1.27a2.1,2.1,0,0,1,1.491.619A2.094,2.094,0,0,1,3.38-.06V1.38A2.113,2.113,0,0,1,1.27,3.492" transform="translate(0.843 3.61)"/>
      </g>
      <g id="Group_9705" data-name="Group 9705" transform="translate(30.737 25.281)">
        <path id="Path_7394" data-name="Path 7394" class="cls-5" d="M.921,2.112H.2A1.746,1.746,0,0,1-1.037,1.6,1.74,1.74,0,0,1-1.549.36V-1.8a1.743,1.743,0,0,1,.512-1.239A1.738,1.738,0,0,1,.2-3.551H.921a1.738,1.738,0,0,1,1.239.514A1.745,1.745,0,0,1,2.674-1.8v.671H1.33V-1.8a.417.417,0,0,0-.118-.29.413.413,0,0,0-.29-.118H.2a.4.4,0,0,0-.289.12.408.408,0,0,0-.12.289V.36a.412.412,0,0,0,.12.29A.4.4,0,0,0,.2.768H.921A.406.406,0,0,0,1.33.36V-.312H2.674V.36A1.745,1.745,0,0,1,2.161,1.6a1.741,1.741,0,0,1-1.239.514" transform="translate(1.549 3.551)"/>
      </g>
      <g id="Group_9706" data-name="Group 9706" transform="translate(18.657 23.842)">
        <path id="Path_7395" data-name="Path 7395" class="cls-5" d="M1.933,2.649H.588v-4.99a.769.769,0,0,0-.223-.544A.763.763,0,0,0-.177-3.11h-.96a.764.764,0,0,0-.544.225.77.77,0,0,0-.225.544v4.99H-3.249v-4.99A2.1,2.1,0,0,1-2.63-3.836a2.1,2.1,0,0,1,1.493-.617h.96a2.1,2.1,0,0,1,1.491.619,2.1,2.1,0,0,1,.619,1.493Z" transform="translate(3.249 4.453)"/>
      </g>
      <path id="Path_7396" data-name="Path 7396" class="cls-5" d="M16.88-19.523H11.7v-1.344H16.88Z" transform="translate(6.959 47.587)"/>
      <g id="Group_9707" data-name="Group 9707" transform="translate(34.65 29.033)">
        <path id="Path_7397" data-name="Path 7397" class="cls-6" d="M4.763,2.381A6.384,6.384,0,0,1-1.623,8.767,6.385,6.385,0,0,1-8.007,2.381,6.383,6.383,0,0,1-1.623-4,6.382,6.382,0,0,1,4.763,2.381" transform="translate(8.007 4.003)"/>
      </g>
      <g id="Group_9708" data-name="Group 9708" transform="translate(35.593 29.089)">
        <path id="Path_7398" data-name="Path 7398" class="cls-7" d="M.813.5C.8.487.8.476.825.463.846.469.843.482.813.5.8.5.827.493.813.5m.373.52s.064-.01.043.014-.038.008-.043-.014c.006,0,0,.011,0,0M6.288,11.472Zm0,0s0,0,0,0,0-.006,0,0ZM3.254,5.538c-.019-.018.016-.013,0,0s.006,0,0,0M8.324,1.42h0l0,0ZM2.506-.553a.027.027,0,0,1,.011,0c0,.01-.011.01-.011,0s0,0,0,0m.011,0h0ZM6.034.177h0s0,0,0,.008ZM7.02-.067c.037.013,0,.01,0,0h0M.189,5.976c-.013-.011.01.006,0,0h0M2.54-.566a.039.039,0,0,1-.021.011A.016.016,0,0,1,2.54-.566m0,0h0s0,0,0,0m-.2-.01c.006-.011.018-.008.029-.01a.021.021,0,0,1-.029.01m0,0h0Zm.03-.01c-.006,0,0,0,0,0a.008.008,0,0,1,0,0m.024,0-.019,0a.016.016,0,0,1,.019,0m.285.609a.007.007,0,0,1,.008,0c-.008,0-.021,0-.008,0M-.636,5.7c0,.064-.019-.062,0,0,0,.008,0-.008,0,0M2.251-.087c-.01.019-.029.027-.056.037a.06.06,0,0,1,.056-.037M2.4,9.9a.048.048,0,0,1,.03.037c0,.057-.1-.03-.03-.037h0M.248,3.27c0,.022-.014.033-.035.032-.01-.018.024-.07.035-.032,0,.014,0-.008,0,0M6.021.142c-.008.014,0,.024.011.035C6.02.171,5.974.115,6.01.107c.014.008.022.021.011.035s0-.01,0,0M2.189-.121a.155.155,0,0,1-.1.032c.027-.032.057-.03.1-.032M2.65-.333c.018-.035.038-.041.1-.041a.126.126,0,0,1-.1.041M9.133,1.853A.056.056,0,0,1,9.1,1.782a.074.074,0,0,1,.033.072m-1.6-.367c-.049-.008.094-.053.043.014a.106.106,0,0,1-.043-.014c-.006,0,.018,0,0,0m-5-2.054A.208.208,0,0,1,2.69-.6a.232.232,0,0,1-.148.037M2.514.983a.116.116,0,0,0,.046,0c-.061.077-.134-.03-.12-.035-.011,0,.069.037.073.037s-.026,0,0,0M2.53-.6a.243.243,0,0,1-.159.065A.254.254,0,0,1,2.53-.6m.18-.04c-.01-.016-.029,0-.04-.019.03-.032.07-.021.107-.03,0,0-.045.081-.067.049-.01-.016,0,.01,0,0M8.876,1.841c-.021-.019-.062-.006-.073-.048.035.019.077.008.11.037-.011.011-.024.024-.037.011s.013.013,0,0M7.8,1.308v0c-.016-.006-.12-.069-.078-.1s.073.093.078.1M2.516.72a.229.229,0,0,1,.161.056A.174.174,0,0,1,2.516.72m-3.2,4.993c0,.027-.014.038-.041.027a.182.182,0,0,1,0-.12c.013.03.026.061.038.093.006.013-.013-.032,0,0M.7,3.07C.68,2.994.651,2.994.7,2.927c.019.073.019.116,0,.144-.008-.027.021-.027,0,0M2.62-.671c-.051.033-.113.011-.166.032A.158.158,0,0,1,2.62-.671c-.051.033-.01,0,0,0m-.6,5.212s.021-.075.07-.08c.056.037-.043.083-.07.08h0m-.027.006h0c0-.006.008-.008.016-.01l-.016.01m-.3-.9c-.075.187-.27-.129,0,0-.013.026-.045-.022,0,0m-1.03,0A.032.032,0,0,1,.7,3.675c-.013.046-.156-.019-.172-.04a.132.132,0,0,1,.139.013m4.3-4.434a.137.137,0,0,1-.027,0c.01-.01.019-.011.027,0-.008,0,0,0,0,0m.246.059a1.836,1.836,0,0,1-.246-.059.776.776,0,0,1,.274.046c.024.008-.032.01-.029.013-.08-.021.01,0,0,0M2.777-.633c.11-.083.134-.035.271-.022a.332.332,0,0,1-.271.022c.029-.022.123.027,0,0M7.828,1.335c.038,0,.129.144.115.169-.043.069-.115-.107-.163-.131a.418.418,0,0,0,.048-.038M4.873-.269c-.006-.022.156-.014.183-.019.043-.006.367.026.252.078-.088.038-.217.083-.3.01a1.2,1.2,0,0,0-.136-.069c0-.016,0,.021,0,0M6.288.412c.107.115-.061.2-.139.128C6.112.5,6.136.409,6.047.383A.631.631,0,0,0,6.119.359c-.061-.139.139.024.169.053s-.01-.01,0,0M.88,3.643c-.046-.021.153-.019.18-.03-.04-.062,0-.093-.08-.118.07-.085.3.016.375.048-.006.01-.021,0-.027.014s.159.131.056.089-.175.018-.255.064C1.066,3.619.964,3.681.88,3.643h0M.639,3.472c-.062.01.041-.046.032-.067-.041-.1-.332-.118-.359-.2a.041.041,0,0,0,.026-.026c-.1-.041-.15.08-.239.073.185-.317.648.045.833.191-.1.011-.195.011-.292.024h0M2.854.809A.016.016,0,0,1,2.87.815c-.006,0-.03,0-.016-.006s0,0,0,0m.2-.2,0,0,0,0Zm.163.258c.006,0,.043-.021.019,0-.008.013-.04.026-.019,0,0,0,0,.008,0,0m.049.008c.01,0-.016,0,0,0h0M3.045.633a2.143,2.143,0,0,0-.238.247c0,.021.236.006.273.032,0,.024-.032.011-.037.033.03,0,.124-.059.136-.041a.1.1,0,0,1,0,.043c.1.1.089-.118.1-.129C3.2.809,3.286.707,3.167.75A.481.481,0,0,0,3.044.718c-.013-.011.1-.105.107-.118-.067-.016-.075.013-.105.033s.008,0,0,0m3.4-.093c.032,0-.037-.094-.053-.113A.079.079,0,0,0,6.452.42.6.6,0,0,0,6.237.278C6.168.324,6.079.128,6.069.1c.121-.016.2.113.3.166s.426.2.437.3c.008.049-.252.032-.292.089-.029-.073.065-.072.064-.1S6.46.539,6.447.541h0M3.088-.676c-.037-.006-.072,0-.11-.008C3-.7,3.1-.7,3.06-.733a1.157,1.157,0,0,1,.625-.088c.19.024.378-.037.566-.008.077.013.142.014.217.021s-.008.075.067.085c.041.006.132.107.172.085,0,.07-.033.022-.01.086,0,.016.08.059.078.065s-.217,0-.209,0c-.018,0,0,.032.018.027a1.7,1.7,0,0,0,.18,0c-.11.1-.268.085-.388.163-.07.049-.18.043-.263.075A.588.588,0,0,1,4,.039c-.04.057-.309-.078-.337-.11-.059-.072-.195-.257-.048-.316.177-.07,0-.011-.051-.051.043-.057.089-.038.156-.029A.094.094,0,0,0,3.592-.5c-.016-.051.075-.1,0-.152-.033-.022-.222,0-.226-.027-.011-.081.226-.038.27-.107-.179-.035-.37.137-.542.112h0m6.982,8.36a.062.062,0,0,1,.011-.026c0,.008-.008.016-.011.026m-.107.263c.026-.065.048-.132.08-.2a1.652,1.652,0,0,1-.08.2M6.288,11.472c.01.019-.8.246-.887.266a6.531,6.531,0,0,1-1.027.131,5.878,5.878,0,0,1-1.971-.22,1.037,1.037,0,0,0,.262.038c-.08-.049-.175-.032-.246-.094.263.043.514.024.756.056-.026-.033-.247-.088-.246-.11.033,0,.2-.008.209-.014.08-.061-.126-.053-.11-.1.01-.013.064,0,.083-.021.032-.043,0-.064.011-.083a1.171,1.171,0,0,1,.362-.061c-.04.024-.081,0-.065.059-.032,0-.131,0-.137.041a.958.958,0,0,1,.112.144c.038.056.167.091.175.159.021.115.628.105.718.1.225-.026.435-.108.66-.145.132-.024.263-.059.4-.075a1.917,1.917,0,0,1,.317-.062c.032.108.512-.032.627-.01,0,0-.019,0,0,0M10.3,5.541c-.03.123,0,.163-.075.23,0-.093-.032-.265.061-.321a.147.147,0,0,1,.014.091c-.014.049.006-.035,0,0m-.08,1.043a1.1,1.1,0,0,1-.083.461c.006-.172.069-.33.072-.5a.05.05,0,0,1,.011.04h0m-.1-.356a1.544,1.544,0,0,1,.021-.354c0,.19.013.381.006.573a.523.523,0,0,1-.027-.218h0m-.069.311c0-.061,0-.064.064-.1-.014.041-.057.062-.064.1m-.019.671-.038.016c-.026,0,.043-.033.046-.037s0,.018-.008.021,0,0,0,0m.121-1.652A.077.077,0,0,1,10.16,5.5c.011.021,0,.035-.011.054m.038-.2c-.014-.037,0-.065.014-.107.014.043-.008.073-.014.107M9.876,3.078c-.026-.065-.367-.563-.327-.59a4.149,4.149,0,0,1,.694,1.458c-.11-.292-.244-.579-.367-.868h0m.48,1.268v0a9.789,9.789,0,0,0-.407-1.36,6.417,6.417,0,0,0-.884-1.477A6.212,6.212,0,0,0,7.9.38a6.125,6.125,0,0,0-.665-.437C7.128-.119,7.017-.18,6.9-.234,6.852-.26,6.68-.3,6.653-.346c0,.018.1.069.113.083a1.16,1.16,0,0,1-.249-.105c0-.01.019,0,.018-.013-.1-.065-.477-.2-.553-.1a1,1,0,0,1,.266.311c.018.11.187.226.3.26.152.051.037-.016.1-.051.045-.021.083.07.121.048v0C6.758.064,6.744.043,6.733.021c-.013,0,.276.3.311.233A.661.661,0,0,0,6.876.007c-.07-.067-.185-.073-.262-.14-.041-.035-.187-.14-.2-.191.195.006.418.413.609.257a.569.569,0,0,1-.078-.061c.035.011.2.062.144.131-.155-.027.128.129.134.147-.029,0-.049-.024-.073-.026.01.054.161.107.174.2C7.23.335,7.27.267,7.208.342c-.018.022-.1.016-.144.018-.105.01-.225-.169-.3-.226a.377.377,0,0,0,.2.22c.054.032-.077.045-.073.089a.334.334,0,0,1,.033.016c0,.014-.029-.011-.033-.016a.852.852,0,0,1-.022.174c.088.1-.113.07-.12.075.016.022.048.035.054.067a.52.52,0,0,0-.164.018c.083.024.541.236.442.394-.032.053-.343-.013-.4-.014-.121-.008-.011.113-.008.128.019.093.091.131.086.241-.006.073.072.075.093.139s.01.061.067.069c.1.011.105,0,.19.062.062.048.086-.043.159-.046.182-.008.029-.045.113-.069.108-.029-.029-.2-.024-.23.006-.046,0-.1.051-.113.094-.022-.024-.118-.03-.142-.018-.078.255.062.222-.129a2.983,2.983,0,0,1,.461.271.786.786,0,0,1,.233.182c.073.1-.107.056-.116.083s.158.108.185.105a1.319,1.319,0,0,0-.022-.131c-.008-.067-.108-.134-.1-.188a.175.175,0,0,1,.086.033c-.093-.112-.241-.123-.346-.207-.061-.051-.14-.091-.2-.145,0,0-.108-.14-.032-.115a3.784,3.784,0,0,1,.38.231.56.56,0,0,1,.195.167c.027.035.18.212.217.217A.942.942,0,0,0,8.7,1.7a.854.854,0,0,0-.065-.159c-.035-.056-.175-.085-.175-.169.03,0,.035-.03.1-.029-.035,0,.048-.053.04-.046A.971.971,0,0,1,8.249.849c.037,0,.056.049.094.024A.144.144,0,0,1,8.332.795c.01.011.136.118.108.139A.114.114,0,0,1,8.353.89c.016.064.08.064.107.108,0-.018-.011-.033,0-.051.108.046.333.22.362.341-.048,0-.137-.1-.174-.072a.085.085,0,0,0,0,.073.053.053,0,0,0-.037.011.079.079,0,0,1,.029.053L8.6,1.373c.016.059.34.367.362.338,0-.011-.013-.045-.006-.049s.065.072.091.054-.018-.043,0-.054c.046-.026.244.356.266.4.093.179.03.069-.04.094a.151.151,0,0,0-.019.059.95.95,0,0,1-.329-.158c-.148-.107.046.289-.04.238-.049-.029-.078-.069-.137-.075-.093-.01-.12-.1-.2-.132s-.332-.046-.3-.166-.1-.19-.15-.23a1.416,1.416,0,0,0-.362.033c-.081.026-.209.051-.254.128-.08.14-.258-.046-.33-.016-.037.016,0,.131-.019.166-.032.057-.1.059-.12.124-.032.121.059.218.018.33-.033.086-.2.124-.2.2a.111.111,0,0,1-.045.1c-.078.045,0,.147-.046.2-.26.265.083.523.024.813-.033.164-.053.2.019.341.016.035,0,.29.132.188.018.148.209.179.242.319.041.169.2.241.333.343a1.111,1.111,0,0,0,.153.121c.107.054.177-.029.278-.057a.375.375,0,0,1,.27.026c.049.022.418-.238.515-.188.073.037.077.126.112.188.048.089.147-.027.215,0,.121.053.156.491.056.574-.077.056.1.293.121.344a1.049,1.049,0,0,1,.108.523c-.019.121.018.314-.053.423a2.526,2.526,0,0,0-.166.343c-.145.314-.01.667-.131.992a2.616,2.616,0,0,0-.1.518c-.027.113-.166.274-.11.392.081-.073.2-.064.3-.112.188-.093.281-.311.418-.458a.9.9,0,0,0,.159-.266c.043-.089.124-.148.166-.236.094-.223.183-.445.278-.668a5.4,5.4,0,0,0,.308-1.459,4.876,4.876,0,0,0-.027-1.611M.227.4ZM.168.453h0ZM2.334-.577ZM1.765,10.051l-.006,0c.006,0,.008-.006.006,0m.486.655c-.022,0-.021-.013.006-.027.022.008.019.018-.006.027-.01,0,.006,0,0,0m-.23-.1c-.024-.013-.024-.022,0-.026s.027.021,0,.026.008,0,0,0M1.848,8.831c-.033.008.035-.014,0,0-.008,0,0,0,0,0M1.827,7.182c-.019-.021.011.008,0,0s0,0,0,0M1.7,9.828c-.053-.008.026-.04,0,0-.013,0,0,0,0,0M1.4,4.534c-.029,0,.038,0,0,0h0m-1.8-.595c-.016.006.046-.011,0,0,0,0,.008,0,0,0m-.738-.533c-.061,0,.045,0,0,0h0M.688.619C.7.653.693.667.655.672A.408.408,0,0,0,.688.619m.18.244C1,.82,1.045.747,1.12.846c.032.035.026.132-.045.108C1.095.962.867.94.908.916A.242.242,0,0,1,.72.94.689.689,0,0,1,.868.863C.9.852.813.877.868.863M.766.624C.785.606.835.528.811.5.825.515.72.487.77.469.787.463.905.4.923.418.958.453.777.643.741.657A.056.056,0,0,1,.766.624C.8.6.755.632.766.624M.87.262A.039.039,0,0,1,.83.286C.84.267.851.267.87.262M.911.107c.01,0,.159-.094.164-.056A1.113,1.113,0,0,1,.911.107m.2.582s-.038.073-.059.045.053-.077.059-.045,0-.01,0,0M1.095-.067c.013,0,.1-.062.116-.049.03.038-.152.085-.158.085.01-.022.027-.026.041-.035.032-.016-.014.01,0,0m.159,1.075c.086.04.038.171-.037.069a.281.281,0,0,1-.163.175.082.082,0,0,0,.021-.078C1.058,1.158,1.023,1.2,1,1.2c.008.038.152-.244.032-.164a3.719,3.719,0,0,1-.351.324c-.027-.026.128-.252.14-.26a.476.476,0,0,1,.429-.089m.069.12s-.022,0,0,0h0M1.392.989a.02.02,0,0,1-.03,0c.016-.006.029-.01.03,0s0-.01,0,0M1.379-.261a.669.669,0,0,1,.207-.086.527.527,0,0,1-.209.088Zm.038,1.439c.231.021-.137.093-.175.049a.22.22,0,0,1,.175-.049h0m-.225.139s-.278.11-.258.041c0,.022.1-.08.075-.07a1.755,1.755,0,0,1,.266-.021.191.191,0,0,1-.083.049c-.061.022.027-.011,0,0M2.125-.272c.019.01.016.016-.008.027C2.1-.257,2.1-.263,2.125-.272h0m.03.035a.074.074,0,0,1,.053-.019c.018.026-.107.04-.053.019.01-.013,0,0,0,0m.721-.057c-.021.022-.048.008-.072.021.026-.051.03-.051.072-.021m-.129.086H2.706c.057-.049.048,0,.041,0h0M1.954.417c-.033.038-.033.038-.078.029.026-.016.056-.01.078-.029m.064.2c-.175.167-.038,0-.091.054,0,0,0,0,0,0s.091-.057.094-.059c-.022.021-.03,0,0,0M1.964.825h0M2.147.279c.013-.013.022-.013.03.006C2.165.3,2.154.3,2.147.279s0,.01,0,0m.183.349c.029.01-.041,0,0,0,0,0-.008,0,0,0M2.664.394a.064.064,0,0,1,.062.019c0,.011-.137.018-.158.053.018-.059.067-.049.1-.072.016.016-.029.022,0,0M3,.421a.223.223,0,0,1-.113.048C2.913.428,2.954.434,3,.421M2.58,10.829a.5.5,0,0,0,.116-.024c-.046-.038-.15-.041-.211-.08,0,0-.191-.118-.152-.019.011.024.048,0,.067.014-.024.037-.035.026-.01.041,0,0-.218-.12,0-.129-.152-.134.01-.093-.038-.179-.033-.059.129-.115.041-.166-.041-.024-.086-.019-.129-.048-.061-.045,0-.123.053-.113,0,0,.035-.139.046-.161-.016,0-.131-.145-.1-.175s.18.091.215,0c.014-.033-.049-.124-.045-.161.067-.006.5.008.427-.19-.024-.07-.209-.174-.191-.23.065.008.169.1.239.064s.1.033.159-.033c.008-.01.107-.116.08-.136-.03,0-.046.016-.048.053-.035-.049.022-.08.054-.115l.022.03c.037-.054.238-.316.246-.322.1-.12.018-.281.12-.378a1.043,1.043,0,0,1,.309-.191.84.84,0,0,1,.193-.073c.214.065.188-.191.324-.306s.037-.7.147-.75A2.6,2.6,0,0,0,4.854,6.7a.347.347,0,0,0,.069-.351c-.053-.19-.108-.081-.247-.164-.11-.067-.195-.2-.333-.217A1.34,1.34,0,0,1,4.1,5.957c-.037-.011-.128-.065-.163-.019a.2.2,0,0,0-.067.033c-.01-.006,0-.107-.03-.129a.71.71,0,0,0-.234-.094c-.12-.03-.148.108-.179-.057-.1-.027-.2-.14-.179-.171.008-.011-.153-.352-.175-.321,0-.116-.359-.257-.447-.2S2.4,4.943,2.347,4.89s-.054-.126-.15-.166c-.04-.016-.107-.006-.093-.077s-.175-.088-.193-.159a.131.131,0,0,0,.073-.016c-.073.027-.163-.026-.238.033-.105.088-.169-.043-.287-.019-.147.029-.048-.027-.142-.083.04.024-.172-.1-.123-.093-.043,0,.008.073-.041.089-.078.029-.145.048-.094.14.085.169-.177.089-.053-.026.022-.021.027-.242.051-.233a1.028,1.028,0,0,0-.3.177c-.077-.124-.206.3-.249.309C.489,4.664.387,4.619.3,4.589s-.148.148-.246.053c-.172-.175-.1-.458-.008-.657.035-.091-.321-.12-.364-.083-.088.07.014-.147.014-.147.01-.081.029-.139.067-.137A1.6,1.6,0,0,0-.093,3.3c-.053-.124-.279.094-.3.152s-.067.083-.086.134-.064-.013-.1.008c-.1.054-.234.026-.214-.115.021-.169-.043-.5.147-.62.057-.035.069-.2.134-.265.01,0,.2-.118.182-.139.029.03.177-.032.2.008a.144.144,0,0,0,.136.048s.016-.075.016-.075-.062-.01-.059-.029S.149,2.4.155,2.4c.085.006.148.077.212.035.1-.065.038.372.077.413.021.022.006.077.048.072s.073-.571.218-.689a2.505,2.505,0,0,1,.34-.225A.467.467,0,0,0,1.2,1.9c-.006-.019-.022-.041-.043-.022,0-.033.054-.013.062-.049S1.2,1.787,1.2,1.772s.037-.073.024-.062a.008.008,0,0,1,0,0c.059.011-.011-.053-.014-.062.077.038.045-.085.12-.089-.054.022-.043.081-.035.116.014.083.086-.11.078-.1a1.364,1.364,0,0,0,.258-.144c-.019-.006-.037.008-.057-.008.078-.03.166-.021.241-.057a.165.165,0,0,1,.134-.177,3.241,3.241,0,0,0,.432-.152c-.021.045.011.01.049.026-.046-.113-.289.215-.174.148.1-.056.426-.107.47-.2,0-.006-.021-.069-.021-.069-.081,0-.088.1-.188.1-.179,0-.072-.113-.108-.166A.075.075,0,0,1,2.328.854C2.345.85,2.57.8,2.45.771c-.191-.04-.317.172-.474.167A1.309,1.309,0,0,1,2.4.694c.15-.022.362.053.5-.04s.2-.022.266-.156C3.179.463,3.072.413,3.044.409c.011-.013.035,0,.046-.022C2.91.306,2.873.228,2.851.021,2.761.086,2.454.23,2.618,0,2.559-.027,2.376-.183,2.3-.075a.47.47,0,0,1-.139.152C2.042.133,2.151.125,2.108.2,2.042.337,1.873.321,1.8.437,1.746.511,1.731.563,1.653.6S1.561.547,1.594.484c.024.027.046.032.064.011S1.624.479,1.61.469A.562.562,0,0,1,1.7.354C1.685.348,1.516.321,1.521.276,1.532.182,1.415.233,1.393.2c.091-.115.091-.169.271-.258.062-.03.407-.207.47-.163-.008.038-.049.032-.073.051A.406.406,0,0,0,2.3-.172c-.01-.01-.069-.105-.038-.128a.476.476,0,0,0,.107,0c.056-.014.116-.021.147-.078a.336.336,0,0,1,.254-.088c.239.134-.322.278-.329.265.011.037.163-.03.2.073.01.027.182.083.2.059s-.051-.077-.051-.091c.18.089.172.041.14-.08s.107.008.113.013c.03.014.153-.054.172-.081C3.173-.341,3.1-.339,3.057-.381s.1-.046.048-.081S2.966-.5,2.994-.585a.111.111,0,0,0-.089.011c.01.016.027,0,.035.014a.181.181,0,0,1-.1.019c.011-.014.043-.014.045-.046-.094-.01-.144.046-.226.07.024-.032.062-.043.093-.069a.472.472,0,0,0-.244.1c.008.011.021.019.026.032a.89.89,0,0,1-.238.116c.013-.056.072-.041.089-.081A.21.21,0,0,0,2.3-.4c.033,0,.134-.1.156-.129-.144-.018-.206.171-.343.144.029-.033.086-.016.105-.069-.049.006-.241.137-.274.069a2.465,2.465,0,0,0,.389-.2c-.024,0-.051.022-.072-.006C2.28-.6,2.307-.6,2.328-.625c-.115,0-.459.142-.434.22a.137.137,0,0,1-.148.024c.022-.033.1-.033.037-.085-.112.043-.22.088-.329.134A6.161,6.161,0,0,0,.73.053,5.509,5.509,0,0,0-.283.885a4.713,4.713,0,0,0-.8,1.07.8.8,0,0,1-.11.319c-.033.085-.038.2-.08.279a1.822,1.822,0,0,0-.091.549c.051-.041.158-.911.254-.877a1.894,1.894,0,0,1-.078.407c-.08.18.027.4-.026.593-.006.021-.032.116-.033.136-.088.067.024.167.024.241,0,.046.222.242.266.266.093.056.112-.043.2-.024s.1.155.14.214c.056.083.265.073.3.113s0,.19.1.212c0-.011,0-.065.01-.075.03-.018.093.088.07.108a.08.08,0,0,1-.08-.033c0,.014-.016.223.045.183,0,0,0-.027.008-.04.08.035.073.153.129.167.078.024.137.121.2.148s.037-.185.137-.195c.081-.006.126.2.153.255.045.073-.056.252,0,.308s-.139.2-.148.257-.105.089-.1.107a.374.374,0,0,1-.038.163c-.049.131-.027.142.061.2,0,0-.159.319-.067.4a1.46,1.46,0,0,1,.384.6.925.925,0,0,0,.482.537A.578.578,0,0,1,1.356,8,1.264,1.264,0,0,0,1.4,8.44c.043.091-.035.242.022.325.037.051-.013.08.011.129a.659.659,0,0,1,.075.2c0,.1,0,.217.006.317,0,.032-.029.091-.011.112a1.8,1.8,0,0,1,.156.456c0,.024.1-.006.01-.1.112-.064.089.2.1.2-.1-.035-.037-.008-.029.121.006.077-.019.04.043.053.1.024,0,.089.037.142a2.618,2.618,0,0,0,.266.289c.128.136.344.112.494.145.024,0-.026,0,0,0" transform="translate(1.366 0.837)"/>
      </g>
    </g>
  </g>
</svg>
