<svg xmlns="http://www.w3.org/2000/svg" xmlns:xlink="http://www.w3.org/1999/xlink" viewBox="0 0 60 60">
  <defs>
    <style>
      .cls-1 {
        fill: none;
      }

      .cls-2 {
        clip-path: url(#clip-path);
      }

      .cls-3 {
        fill: #6c80c1;
      }

      .cls-4 {
        fill: #fff;
      }
    </style>
    <clipPath id="clip-path">
      <path id="Path_6926" data-name="Path 6926" class="cls-1" d="M0-270H60v60H0Z" transform="translate(0 270)"/>
    </clipPath>
  </defs>
  <g id="Permission" transform="translate(-629.5 -618.5)">
    <g id="Group_9190" data-name="Group 9190" class="cls-2" transform="translate(629.5 618.5)">
      <g id="Group_9188" data-name="Group 9188">
        <path id="Path_6924" data-name="Path 6924" class="cls-3" d="M-210-105a30,30,0,0,1-30,30,30,30,0,0,1-30-30,30,30,0,0,1,30-30,30,30,0,0,1,30,30" transform="translate(270 135)"/>
      </g>
      <g id="Group_9189" data-name="Group 9189" transform="translate(13.334 14.667)">
        <path id="Path_6925" data-name="Path 6925" class="cls-4" d="M-70.474-61.653c0-2.447-1.647-4.415-3.472-4.415s-3.473,1.969-3.473,4.415,6.945,2.445,6.945,0m-5.555-7.193a2.131,2.131,0,0,0,2.083,2.083,2.131,2.131,0,0,0,2.083-2.083,2.13,2.13,0,0,0-2.083-2.083,2.129,2.129,0,0,0-2.083,2.083M-57.276-72.6v14.278a3.343,3.343,0,0,1-3.333,3.333H-87.276a3.342,3.342,0,0,1-3.333-3.333V-75.935a3.343,3.343,0,0,1,3.333-3.333h10l3.333,3.333h13.333A3.344,3.344,0,0,1-57.276-72.6m-8.851,23.476h6.514v1.57h-6.5a1.794,1.794,0,0,1-1.777,1.621H-80a1.794,1.794,0,0,1-1.777-1.621h-6.5v-1.57h6.512A1.8,1.8,0,0,1-80-50.571h3.74v-2.453h4.635v2.453h3.739a1.8,1.8,0,0,1,1.759,1.445" transform="translate(90.609 79.268)"/>
      </g>
    </g>
  </g>
</svg>
