<svg xmlns="http://www.w3.org/2000/svg" xmlns:xlink="http://www.w3.org/1999/xlink" viewBox="0 0 60 60">
  <defs>
    <style>
      .cls-1 {
        fill: none;
      }

      .cls-2 {
        clip-path: url(#clip-path);
      }

      .cls-3 {
        fill: #ff8f2c;
      }

      .cls-4 {
        fill: #fff;
      }
    </style>
    <clipPath id="clip-path">
      <path id="Path_7306" data-name="Path 7306" class="cls-1" d="M0-178.97H60v60H0Z" transform="translate(0 178.97)"/>
    </clipPath>
  </defs>
  <g id="Roles" transform="translate(-628 -1211.971)">
    <g id="Group_9654" data-name="Group 9654" class="cls-2" transform="translate(628 1211.97)">
      <g id="Group_9641" data-name="Group 9641" transform="translate(0 0)">
        <path id="Path_7293" data-name="Path 7293" class="cls-3" d="M0-59.482a30,30,0,0,1,30-30,30,30,0,0,1,30,30,30,30,0,0,1-30,30,30,30,0,0,1-30-30" transform="translate(0 89.48)"/>
      </g>
      <g id="Group_9642" data-name="Group 9642" transform="translate(43.081 28.117)">
        <path id="Path_7294" data-name="Path 7294" class="cls-4" d="M-12.807-5.456v1.615a3.216,3.216,0,0,1-.769,2.092c0,.015,0,.031,0,.046V5.925A1.074,1.074,0,0,1-14.647,7a1.074,1.074,0,0,1-1.074-1.074V-.627c-.1.01-.209.015-.315.015-.063,0-.125,0-.187-.005V5.925A1.073,1.073,0,0,1-17.3,7,1.074,1.074,0,0,1-18.37,5.925V-1.609a3.224,3.224,0,0,1-.9-2.232V-5.456a3.225,3.225,0,0,1,1.54-2.752l1.69,3.012,1.689-3.012a3.226,3.226,0,0,1,1.539,2.752" transform="translate(19.266 8.208)"/>
      </g>
      <g id="Group_9643" data-name="Group 9643" transform="translate(44.618 24.729)">
        <path id="Path_7295" data-name="Path 7295" class="cls-4" d="M-3.36,0A1.7,1.7,0,0,1-1.666,1.694,1.7,1.7,0,0,1-3.36,3.387,1.7,1.7,0,0,1-5.054,1.694,1.7,1.7,0,0,1-3.36,0" transform="translate(5.054)"/>
      </g>
      <g id="Group_9644" data-name="Group 9644" transform="translate(45.824 28.372)">
        <path id="Path_7296" data-name="Path 7296" class="cls-4" d="M-1.351,0l.293,1.27-.487.486-.487-.486L-1.74,0a.38.38,0,0,0,.195.069A.38.38,0,0,0-1.351,0" transform="translate(2.033)"/>
      </g>
      <g id="Group_9645" data-name="Group 9645" transform="translate(14.188 8.754)">
        <path id="Path_7297" data-name="Path 7297" class="cls-4" d="M-64.382-27.955h-1.936c-1.991-6.957-7.639-11.975-14.3-11.975s-12.308,5.018-14.3,11.975h-1.937c1.593-8.055,8.256-14.1,16.234-14.1s14.641,6.043,16.236,14.1" transform="translate(96.851 42.053)"/>
      </g>
      <g id="Group_9646" data-name="Group 9646" transform="translate(37.071 44.197)">
        <path id="Path_7298" data-name="Path 7298" class="cls-4" d="M-15.168,0h1.936c-1.122,1.524-4.753,2.781-9.586,3.392V2.738C-19.229,2.186-16.446,1.2-15.168,0" transform="translate(22.818)"/>
      </g>
      <g id="Group_9647" data-name="Group 9647" transform="translate(24.289 22.367)">
        <path id="Path_7299" data-name="Path 7299" class="cls-4" d="M-24.324-10.363V-7.3a6.112,6.112,0,0,1-1.461,3.972c0,.03,0,.058,0,.088V11.251a2.04,2.04,0,0,1-2.039,2.04,2.04,2.04,0,0,1-2.04-2.04V-1.192q-.3.029-.6.03c-.118,0-.235,0-.352-.01V11.251a2.04,2.04,0,0,1-2.04,2.04,2.04,2.04,0,0,1-2.04-2.04V-3.058a6.112,6.112,0,0,1-1.7-4.239v-3.066a6.129,6.129,0,0,1,2.924-5.226l3.208,5.72,3.21-5.72a6.128,6.128,0,0,1,2.925,5.226" transform="translate(36.591 15.589)"/>
      </g>
      <g id="Group_9648" data-name="Group 9648" transform="translate(27.207 15.935)">
        <path id="Path_7300" data-name="Path 7300" class="cls-4" d="M-6.374,0A3.217,3.217,0,0,1-3.158,3.216,3.216,3.216,0,0,1-6.374,6.432,3.215,3.215,0,0,1-9.589,3.216,3.216,3.216,0,0,1-6.374,0" transform="translate(9.589)"/>
      </g>
      <g id="Group_9649" data-name="Group 9649" transform="translate(29.496 22.852)">
        <path id="Path_7301" data-name="Path 7301" class="cls-4" d="M-2.567,0l.557,2.415-.926.922-.925-.922L-3.3,0a.713.713,0,0,0,.367.134A.715.715,0,0,0-2.567,0" transform="translate(3.862)"/>
      </g>
      <g id="Group_9650" data-name="Group 9650" transform="translate(14.188 44.197)">
        <path id="Path_7302" data-name="Path 7302" class="cls-4" d="M-19.42-5.492v.647c-4.937-.6-8.656-1.871-9.794-3.417h1.937c1.3,1.224,4.168,2.223,7.857,2.77" transform="translate(29.214 8.262)"/>
      </g>
      <g id="Group_9651" data-name="Group 9651" transform="translate(11.194 28.117)">
        <path id="Path_7303" data-name="Path 7303" class="cls-4" d="M-12.808-5.456v1.615a3.221,3.221,0,0,1-.77,2.092c0,.015,0,.031,0,.046V5.925A1.074,1.074,0,0,1-14.649,7a1.074,1.074,0,0,1-1.073-1.074V-.627c-.1.01-.209.015-.315.015-.062,0-.123,0-.185-.005V5.925A1.074,1.074,0,0,1-17.3,7a1.073,1.073,0,0,1-1.074-1.074V-1.609a3.217,3.217,0,0,1-.9-2.232V-5.456a3.227,3.227,0,0,1,1.539-2.752l1.69,3.012,1.69-3.012a3.228,3.228,0,0,1,1.54,2.752" transform="translate(19.267 8.208)"/>
      </g>
      <g id="Group_9652" data-name="Group 9652" transform="translate(12.729 24.729)">
        <path id="Path_7304" data-name="Path 7304" class="cls-4" d="M-3.359,0A1.7,1.7,0,0,1-1.665,1.694,1.7,1.7,0,0,1-3.359,3.387,1.7,1.7,0,0,1-5.053,1.694,1.7,1.7,0,0,1-3.359,0" transform="translate(5.053)"/>
      </g>
      <g id="Group_9653" data-name="Group 9653" transform="translate(13.936 28.372)">
        <path id="Path_7305" data-name="Path 7305" class="cls-4" d="M-1.352,0l.293,1.27-.487.486-.488-.486L-1.74,0a.378.378,0,0,0,.194.069A.378.378,0,0,0-1.352,0" transform="translate(2.034 0)"/>
      </g>
    </g>
  </g>
</svg>
