<svg xmlns="http://www.w3.org/2000/svg" xmlns:xlink="http://www.w3.org/1999/xlink" viewBox="0 0 70.5 70.5">
  <defs>
    <style>
      .cls-1 {
        fill: none;
      }

      .cls-2 {
        clip-path: url(#clip-path);
      }

      .cls-3 {
        fill: #b70707;
      }

      .cls-4 {
        fill: #fff;
      }
    </style>
    <clipPath id="clip-path">
      <path id="Path_6926" data-name="Path 6926" class="cls-1" d="M0-270H70.5v70.5H0Z" transform="translate(0 270)"/>
    </clipPath>
  </defs>
  <g id="Permission_Categories" data-name="Permission Categories" transform="translate(-950.5 -618.5)">
    <g id="Group_9190" data-name="Group 9190" class="cls-2" transform="translate(950.5 618.5)">
      <g id="Group_9188" data-name="Group 9188">
        <path id="Path_6924" data-name="Path 6924" class="cls-3" d="M-199.5-99.75A35.25,35.25,0,0,1-234.75-64.5,35.25,35.25,0,0,1-270-99.75,35.249,35.249,0,0,1-234.75-135,35.25,35.25,0,0,1-199.5-99.75" transform="translate(270 135)"/>
      </g>
      <g id="Group_9189" data-name="Group 9189" transform="translate(15.667 35.234)">
        <path id="Path_6925" data-name="Path 6925" class="cls-4" d="M-79.726-69.747A2.212,2.212,0,0,0-81.6-72.134a2.212,2.212,0,0,0-1.877,2.386c0,1.322,3.754,1.322,3.754,0m-3-3.888A1.152,1.152,0,0,0-81.6-72.509a1.152,1.152,0,0,0,1.126-1.126A1.151,1.151,0,0,0-81.6-74.761a1.151,1.151,0,0,0-1.126,1.126m10.136-2.03v7.717a1.807,1.807,0,0,1-1.8,1.8H-88.807a1.806,1.806,0,0,1-1.8-1.8v-9.519a1.807,1.807,0,0,1,1.8-1.8h5.4l1.8,1.8h7.207a1.807,1.807,0,0,1,1.8,1.8m-4.784,12.688h3.521v.849h-3.511a.97.97,0,0,1-.961.876h-6.548a.969.969,0,0,1-.96-.876h-3.511v-.849h3.52a.975.975,0,0,1,.952-.781h2.022v-1.326h2.505v1.326h2.021a.973.973,0,0,1,.951.781" transform="translate(90.609 79.268)"/>
      </g>
      <g id="Group_9194" data-name="Group 9194" transform="translate(36.667 35.234)">
        <path id="Path_6925-2" data-name="Path 6925" class="cls-4" d="M-79.726-69.747A2.212,2.212,0,0,0-81.6-72.134a2.212,2.212,0,0,0-1.877,2.386c0,1.322,3.754,1.322,3.754,0m-3-3.888A1.152,1.152,0,0,0-81.6-72.509a1.152,1.152,0,0,0,1.126-1.126A1.151,1.151,0,0,0-81.6-74.761a1.151,1.151,0,0,0-1.126,1.126m10.136-2.03v7.717a1.807,1.807,0,0,1-1.8,1.8H-88.807a1.806,1.806,0,0,1-1.8-1.8v-9.519a1.807,1.807,0,0,1,1.8-1.8h5.4l1.8,1.8h7.207a1.807,1.807,0,0,1,1.8,1.8m-4.784,12.688h3.521v.849h-3.511a.97.97,0,0,1-.961.876h-6.548a.969.969,0,0,1-.96-.876h-3.511v-.849h3.52a.975.975,0,0,1,.952-.781h2.022v-1.326h2.505v1.326h2.021a.973.973,0,0,1,.951.781" transform="translate(90.609 79.268)"/>
      </g>
      <g id="Group_9193" data-name="Group 9193" transform="translate(25.667 14.234)">
        <path id="Path_6925-3" data-name="Path 6925" class="cls-4" d="M-79.726-69.747A2.212,2.212,0,0,0-81.6-72.134a2.212,2.212,0,0,0-1.877,2.386c0,1.322,3.754,1.322,3.754,0m-3-3.888A1.152,1.152,0,0,0-81.6-72.509a1.152,1.152,0,0,0,1.126-1.126A1.151,1.151,0,0,0-81.6-74.761a1.151,1.151,0,0,0-1.126,1.126m10.136-2.03v7.717a1.807,1.807,0,0,1-1.8,1.8H-88.807a1.806,1.806,0,0,1-1.8-1.8v-9.519a1.807,1.807,0,0,1,1.8-1.8h5.4l1.8,1.8h7.207a1.807,1.807,0,0,1,1.8,1.8m-4.784,12.688h3.521v.849h-3.511a.97.97,0,0,1-.961.876h-6.548a.969.969,0,0,1-.96-.876h-3.511v-.849h3.52a.975.975,0,0,1,.952-.781h2.022v-1.326h2.505v1.326h2.021a.973.973,0,0,1,.951.781" transform="translate(90.609 79.268)"/>
      </g>
    </g>
  </g>
</svg>
