<svg xmlns="http://www.w3.org/2000/svg" xmlns:xlink="http://www.w3.org/1999/xlink" viewBox="0 0 60 60.001">
  <defs>
    <style>
      .cls-1 {
        fill: none;
      }

      .cls-2 {
        clip-path: url(#clip-path);
      }

      .cls-3 {
        fill: #ffcc5c;
      }

      .cls-4 {
        fill: #dfad4a;
      }

      .cls-5 {
        fill: #eac3a9;
      }

      .cls-6 {
        fill: #f8d5bc;
      }

      .cls-7 {
        fill: #e8dac4;
      }

      .cls-8 {
        fill: #ff6e69;
      }

      .cls-9 {
        fill: #393731;
      }

      .cls-10 {
        fill: #fff5e0;
      }

      .cls-11 {
        fill: #624335;
      }

      .cls-12 {
        fill: #51504e;
      }
    </style>
    <clipPath id="clip-path">
      <path id="Path_6899" data-name="Path 6899" class="cls-1" d="M0-93H60v60H0Z" transform="translate(0 93.001)"/>
    </clipPath>
  </defs>
  <g id="Users" transform="translate(-303 -622.001)">
    <g id="Group_9162" data-name="Group 9162" class="cls-2" transform="translate(303 622.001)">
      <g id="Group_9161" data-name="Group 9161">
        <path id="Path_6898" data-name="Path 6898" class="cls-3" d="M-33-16.5a30.088,30.088,0,0,1-30,30,30.088,30.088,0,0,1-30-30,30.088,30.088,0,0,1,30-30,30.088,30.088,0,0,1,30,30" transform="translate(93 46.501)"/>
      </g>
    </g>
    <g id="Group_9186" data-name="Group 9186" class="cls-2" transform="translate(303 622.001)">
      <g id="Group_9163" data-name="Group 9163" transform="translate(11.408 11.844)">
        <path id="Path_6900" data-name="Path 6900" class="cls-4" d="M-26.011-14.772-52.869-41.629l-2.212,8.764-6.463,4.272,6.817,5.4a11.221,11.221,0,0,1-.509,4.154,9.312,9.312,0,0,1-2.9,2.661L-65.3-21.552l-1.954,9.49L-73.3-8.178-58.9,6.227a29.889,29.889,0,0,0,4.186.3,30.116,30.116,0,0,0,28.7-21.3" transform="translate(73.304 41.629)"/>
      </g>
      <g id="Group_9164" data-name="Group 9164" transform="translate(28.612 16.892)">
        <path id="Path_6901" data-name="Path 6901" class="cls-5" d="M-1.065-1.238l-.564.575-.6-.575L-3-2.124V-3.49H-.256v1.366Z" transform="translate(3.002 3.49)"/>
      </g>
      <g id="Group_9165" data-name="Group 9165" transform="translate(27.436 11.213)">
        <path id="Path_6902" data-name="Path 6902" class="cls-6" d="M0-1.93c-.014-.39.286-.118.286-.118S-.326-5.44,2.548-5.44,4.811-2.048,4.811-2.048s.3-.272.286.118a2.538,2.538,0,0,1-.105.663A.869.869,0,0,1,4.538-.6,2.257,2.257,0,0,1,4.135.5c-.326.325-.846,1.068-1.587,1.04C1.807,1.569,1.286.826.961.5A2.247,2.247,0,0,1,.559-.6.871.871,0,0,1,.1-1.267,2.575,2.575,0,0,1,0-1.93" transform="translate(0.001 5.44)"/>
      </g>
      <g id="Group_9166" data-name="Group 9166" transform="translate(27.902 19.34)">
        <path id="Path_6903" data-name="Path 6903" class="cls-7" d="M-2.391-2.7H-6.738V-7.622l2.095.137,2.235-.137Z" transform="translate(6.738 7.622)"/>
      </g>
      <g id="Group_9167" data-name="Group 9167" transform="translate(28.781 19.427)">
        <path id="Path_6904" data-name="Path 6904" class="cls-8" d="M-1.156-2.672c-.124-1.037-.286-2.053-.351-2.4-.117-.624-.2-1.309-.2-1.309.041-.183.205-.382.274-.6a.138.138,0,0,0-.041-.172l-.235-.338a.149.149,0,0,0-.088-.037h-.521a.152.152,0,0,0-.088.037l-.233.338a.137.137,0,0,0-.043.172c.07.22.233.419.274.6,0,0-.078.685-.2,1.309-.065.348-.226,1.364-.35,2.4,0,0-1,1.852.6,2.057a5.654,5.654,0,0,0,.636,0c1.541-.217.561-2.057.561-2.057" transform="translate(3.258 7.531)"/>
      </g>
      <g id="Group_9168" data-name="Group 9168" transform="translate(23.168 18.998)">
        <path id="Path_6905" data-name="Path 6905" class="cls-9" d="M-2.712,0c-.4.169-3.381,1.223-3.563,1.275s-.3.351-.338.468-.806,2.81-1.028,3.981c-.107.568,3.158,1.565,6.519,1.621ZM1.059,0c.4.169,3.381,1.223,3.563,1.275s.3.351.339.468.806,2.81,1.028,3.981c.106.565-3.13,1.556-6.477,1.621Z" transform="translate(7.644)"/>
      </g>
      <g id="Group_9169" data-name="Group 9169" transform="translate(27.902 18.196)">
        <path id="Path_6906" data-name="Path 6906" class="cls-10" d="M-1.289-.677-.344.5.535-1.144l-.654-.765Zm-.521,0L-2.753.5l-.879-1.647.646-.765Z" transform="translate(3.632 1.909)"/>
      </g>
      <g id="Group_9170" data-name="Group 9170" transform="translate(27.499 11.095)">
        <path id="Path_6907" data-name="Path 6907" class="cls-11" d="M-1.339,0A2.546,2.546,0,0,0-3.768,2.8a2.813,2.813,0,0,0,.17.872c.092.233.166.319.187.384.09.263.107-.291.126-.388C-3.037,2.478-.808,2.949.033,2.017c0,0-.3.494.674,1.8.06.078.069.424.138.246.023-.064.094-.151.186-.384A2.849,2.849,0,0,0,1.2,2.8C1.26,2.169.821-.045-1.339,0" transform="translate(3.774 0.001)"/>
      </g>
      <g id="Group_9171" data-name="Group 9171" transform="translate(16.836 37.384)">
        <path id="Path_6908" data-name="Path 6908" class="cls-5" d="M-1.065-1.238l-.564.575-.6-.575L-3-2.124V-3.49H-.256v1.366Z" transform="translate(3.002 3.49)"/>
      </g>
      <g id="Group_9172" data-name="Group 9172" transform="translate(15.659 31.706)">
        <path id="Path_6909" data-name="Path 6909" class="cls-6" d="M0-1.93c-.013-.389.286-.117.286-.117S-.325-5.439,2.549-5.439,4.811-2.047,4.811-2.047s.3-.272.286.117a2.547,2.547,0,0,1-.105.664A.872.872,0,0,1,4.538-.6,2.253,2.253,0,0,1,4.136.5C3.81.827,3.29,1.569,2.549,1.542,1.808,1.569,1.287.827.962.5A2.243,2.243,0,0,1,.56-.6.871.871,0,0,1,.1-1.266,2.6,2.6,0,0,1,0-1.93" transform="translate(0.001 5.439)"/>
      </g>
      <g id="Group_9173" data-name="Group 9173" transform="translate(16.125 39.833)">
        <path id="Path_6910" data-name="Path 6910" class="cls-7" d="M-2.391-2.7H-6.738V-7.621l2.1.137,2.235-.137Z" transform="translate(6.738 7.621)"/>
      </g>
      <g id="Group_9174" data-name="Group 9174" transform="translate(17.004 39.92)">
        <path id="Path_6911" data-name="Path 6911" class="cls-8" d="M-1.156-2.673c-.125-1.037-.286-2.053-.352-2.4C-1.624-5.7-1.7-6.383-1.7-6.383c.041-.183.2-.381.274-.6a.139.139,0,0,0-.042-.172l-.235-.338a.147.147,0,0,0-.088-.037h-.521a.151.151,0,0,0-.089.037l-.233.338a.135.135,0,0,0-.042.172c.069.22.232.418.274.6,0,0-.078.686-.2,1.308-.065.349-.226,1.365-.35,2.4,0,0-1,1.851.6,2.057a5.825,5.825,0,0,0,.637,0c1.541-.217.561-2.056.561-2.056" transform="translate(3.258 7.532)"/>
      </g>
      <g id="Group_9175" data-name="Group 9175" transform="translate(11.391 39.491)">
        <path id="Path_6912" data-name="Path 6912" class="cls-9" d="M-2.712,0c-.4.168-3.381,1.223-3.563,1.274s-.3.351-.338.468-.806,2.81-1.028,3.981c-.107.567,3.158,1.565,6.519,1.621ZM1.059,0c.4.168,3.381,1.223,3.564,1.274s.3.351.338.468.806,2.81,1.028,3.981c.106.565-3.13,1.556-6.477,1.621Z" transform="translate(7.644)"/>
      </g>
      <g id="Group_9176" data-name="Group 9176" transform="translate(16.125 38.688)">
        <path id="Path_6913" data-name="Path 6913" class="cls-10" d="M-1.289-.677-.344.5.536-1.143l-.654-.765Zm-.52,0L-2.753.5l-.879-1.647.646-.765Z" transform="translate(3.632 1.908)"/>
      </g>
      <g id="Group_9177" data-name="Group 9177" transform="translate(15.723 31.587)">
        <path id="Path_6914" data-name="Path 6914" class="cls-11" d="M-1.34,0a2.547,2.547,0,0,0-2.43,2.8,2.806,2.806,0,0,0,.171.872c.092.233.165.319.186.384.09.263.107-.29.127-.387C-3.038,2.478-.809,2.949.032,2.018c0,0-.3.493.675,1.8.059.078.069.424.138.246.023-.063.094-.151.186-.384A2.841,2.841,0,0,0,1.2,2.8C1.259,2.169.82-.045-1.34,0" transform="translate(3.775 0.001)"/>
      </g>
      <g id="Group_9178" data-name="Group 9178" transform="translate(40.479 37.384)">
        <path id="Path_6915" data-name="Path 6915" class="cls-5" d="M-1.065-1.238l-.563.575-.6-.575L-3-2.124V-3.49H-.256v1.366Z" transform="translate(3.001 3.49)"/>
      </g>
      <g id="Group_9179" data-name="Group 9179" transform="translate(39.302 31.706)">
        <path id="Path_6916" data-name="Path 6916" class="cls-6" d="M0-1.93c-.014-.389.286-.117.286-.117S-.326-5.439,2.548-5.439,4.811-2.047,4.811-2.047s.3-.272.286.117a2.547,2.547,0,0,1-.105.664A.872.872,0,0,1,4.538-.6,2.253,2.253,0,0,1,4.135.5c-.326.325-.846,1.068-1.587,1.041C1.807,1.569,1.286.827.961.5A2.243,2.243,0,0,1,.559-.6.871.871,0,0,1,.1-1.266,2.584,2.584,0,0,1,0-1.93" transform="translate(0.001 5.439)"/>
      </g>
      <g id="Group_9180" data-name="Group 9180" transform="translate(39.767 39.833)">
        <path id="Path_6917" data-name="Path 6917" class="cls-7" d="M-2.391-2.7H-6.738V-7.621l2.1.137,2.235-.137Z" transform="translate(6.738 7.621)"/>
      </g>
      <g id="Group_9181" data-name="Group 9181" transform="translate(40.647 39.92)">
        <path id="Path_6918" data-name="Path 6918" class="cls-8" d="M-1.156-2.673c-.124-1.037-.286-2.053-.351-2.4-.117-.623-.2-1.308-.2-1.308.041-.183.205-.381.274-.6a.138.138,0,0,0-.041-.172l-.235-.338a.146.146,0,0,0-.088-.037h-.521a.149.149,0,0,0-.088.037l-.234.338a.137.137,0,0,0-.042.172c.07.22.232.418.274.6,0,0-.078.686-.2,1.308-.065.349-.226,1.365-.35,2.4,0,0-1,1.851.6,2.057a5.825,5.825,0,0,0,.637,0c1.541-.217.561-2.056.561-2.056" transform="translate(3.258 7.532)"/>
      </g>
      <g id="Group_9182" data-name="Group 9182" transform="translate(35.034 39.491)">
        <path id="Path_6919" data-name="Path 6919" class="cls-9" d="M-2.712,0c-.4.168-3.381,1.223-3.563,1.274s-.3.351-.338.468-.806,2.81-1.028,3.981c-.107.567,3.158,1.565,6.519,1.621ZM1.059,0c.4.168,3.381,1.223,3.563,1.274s.3.351.338.468.806,2.81,1.028,3.981c.106.565-3.13,1.556-6.477,1.621Z" transform="translate(7.644)"/>
      </g>
      <g id="Group_9183" data-name="Group 9183" transform="translate(39.767 38.688)">
        <path id="Path_6920" data-name="Path 6920" class="cls-10" d="M-1.289-.677-.344.5.536-1.143l-.654-.765Zm-.52,0L-2.753.5l-.879-1.647.646-.765Z" transform="translate(3.632 1.908)"/>
      </g>
      <g id="Group_9184" data-name="Group 9184" transform="translate(39.365 31.587)">
        <path id="Path_6921" data-name="Path 6921" class="cls-11" d="M-1.339,0a2.548,2.548,0,0,0-2.43,2.8,2.825,2.825,0,0,0,.171.872c.092.233.166.319.187.384.09.263.107-.29.126-.387C-3.038,2.478-.809,2.949.033,2.018c0,0-.3.493.674,1.8.06.078.069.424.138.246.023-.063.094-.151.186-.384A2.861,2.861,0,0,0,1.2,2.8C1.259,2.169.821-.045-1.339,0" transform="translate(3.775 0.001)"/>
      </g>
      <g id="Group_9185" data-name="Group 9185" transform="translate(24.709 28.117)">
        <path id="Path_6922" data-name="Path 6922" class="cls-12" d="M-5.8-5.534-9.812-8.616a1.4,1.4,0,0,0,.141-.6A1.407,1.407,0,0,0-10.786-10.6v-5h-.589v5A1.408,1.408,0,0,0-12.489-9.22a1.4,1.4,0,0,0,.141.6l-4.008,3.083.359.466,4.011-3.085a1.389,1.389,0,0,0,.907.339,1.39,1.39,0,0,0,.906-.339l4.011,3.085Z" transform="translate(16.357 15.595)"/>
      </g>
    </g>
  </g>
</svg>
