<svg xmlns="http://www.w3.org/2000/svg" width="28" height="28" viewBox="0 0 28 28"><defs><style>.a{fill:#f3f6f9;opacity:0;}.b{fill:#fff;}</style></defs><g transform="translate(-25 195) rotate(-90)"><rect class="a" width="28" height="28" transform="translate(167 25)"/><g transform="translate(184 33) rotate(90)"><g transform="translate(0)"><path class="b" d="M12.637.145a.5.5,0,0,0-.706,0L6.744,5.26a.5.5,0,0,1-.707,0L.852.144a.5.5,0,0,0-.706,0,.49.49,0,0,0,0,.7L5.332,5.958a1.512,1.512,0,0,0,2.118,0L12.636.843A.49.49,0,0,0,12.637.145Z"/></g></g></g></svg>