<svg aria-hidden="true" style="position: absolute; width: 0; height: 0; overflow: hidden;" version="1.1" xmlns="http://www.w3.org/2000/svg" xmlns:xlink="http://www.w3.org/1999/xlink">
<defs>
<symbol id="icon-narrow" viewBox="0 0 32 32">
<path d="M28 6l-10 10v10h-4v-10l-10-10h24z"></path>
</symbol>
<symbol id="icon-plus" viewBox="0 0 32 32">
<path d="M32 12h-12v-12h-8v12h-12v8h12v12h8v-12h12z"></path>
</symbol>
<symbol id="icon-filter" viewBox="0 0 32 32">
<path d="M32 4.906c0 3.765-10.101 12.581-11.987 16.347v7.789c0 0.021-0.012 0.036-0.014 0.057v0.901c0 1.104-0.896 2-1.999 2h-4c-1.104 0-2-0.896-2-2v-0.899c-0.002-0.021-0.015-0.036-0.015-0.059v-7.789c-1.883-3.766-11.985-12.582-11.985-16.347h0.029c-0.006-0.042-0.029-0.078-0.029-0.118 0-2.141 7.167-4.788 16-4.788s16 2.647 16 4.788c0 0.040-0.023 0.076-0.030 0.118h0.030zM16.17 1.984c-7.751 0-14.184 1.245-14.184 3.528 0 2.282 6.433 4.505 14.184 4.505 7.752 0 13.81-2.223 13.81-4.505-0.001-2.283-6.058-3.528-13.81-3.528z"></path>
</symbol>
<symbol id="icon-plus1" viewBox="0 0 32 32">
<path d="M31 12h-11v-11c0-0.552-0.447-1-1-1h-6c-0.553 0-1 0.448-1 1v11h-11c-0.553 0-1 0.448-1 1v6c0 0.553 0.447 1 1 1h11v11c0 0.553 0.447 1 1 1h6c0.553 0 1-0.447 1-1v-11h11c0.553 0 1-0.447 1-1v-6c0-0.552-0.447-1-1-1z"></path>
</symbol>
<symbol id="icon-cog" viewBox="0 0 32 32">
<path d="M29.181 19.070c-1.679-2.908-0.669-6.634 2.255-8.328l-3.145-5.447c-0.898 0.527-1.943 0.829-3.058 0.829-3.361 0-6.085-2.742-6.085-6.125h-6.289c0.008 1.044-0.252 2.103-0.811 3.070-1.679 2.908-5.411 3.897-8.339 2.211l-3.144 5.447c0.905 0.515 1.689 1.268 2.246 2.234 1.676 2.903 0.672 6.623-2.241 8.319l3.145 5.447c0.895-0.522 1.935-0.82 3.044-0.82 3.35 0 6.067 2.725 6.084 6.092h6.289c-0.003-1.034 0.259-2.080 0.811-3.038 1.676-2.903 5.399-3.894 8.325-2.219l3.145-5.447c-0.899-0.515-1.678-1.266-2.232-2.226zM16 22.479c-3.578 0-6.479-2.901-6.479-6.479s2.901-6.479 6.479-6.479c3.578 0 6.479 2.901 6.479 6.479s-2.901 6.479-6.479 6.479z"></path>
</symbol>
<symbol id="icon-cancel-circle" viewBox="0 0 32 32">
<path d="M16 0c-8.837 0-16 7.163-16 16s7.163 16 16 16 16-7.163 16-16-7.163-16-16-16zM16 29c-7.18 0-13-5.82-13-13s5.82-13 13-13 13 5.82 13 13-5.82 13-13 13z"></path>
<path d="M21 8l-5 5-5-5-3 3 5 5-5 5 3 3 5-5 5 5 3-3-5-5 5-5z"></path>
</symbol>
<symbol id="icon-cross" viewBox="0 0 32 32">
<path d="M31.708 25.708c-0-0-0-0-0-0l-9.708-9.708 9.708-9.708c0-0 0-0 0-0 0.105-0.105 0.18-0.227 0.229-0.357 0.133-0.356 0.057-0.771-0.229-1.057l-4.586-4.586c-0.286-0.286-0.702-0.361-1.057-0.229-0.13 0.048-0.252 0.124-0.357 0.228 0 0-0 0-0 0l-9.708 9.708-9.708-9.708c-0-0-0-0-0-0-0.105-0.104-0.227-0.18-0.357-0.228-0.356-0.133-0.771-0.057-1.057 0.229l-4.586 4.586c-0.286 0.286-0.361 0.702-0.229 1.057 0.049 0.13 0.124 0.252 0.229 0.357 0 0 0 0 0 0l9.708 9.708-9.708 9.708c-0 0-0 0-0 0-0.104 0.105-0.18 0.227-0.229 0.357-0.133 0.355-0.057 0.771 0.229 1.057l4.586 4.586c0.286 0.286 0.702 0.361 1.057 0.229 0.13-0.049 0.252-0.124 0.357-0.229 0-0 0-0 0-0l9.708-9.708 9.708 9.708c0 0 0 0 0 0 0.105 0.105 0.227 0.18 0.357 0.229 0.356 0.133 0.771 0.057 1.057-0.229l4.586-4.586c0.286-0.286 0.362-0.702 0.229-1.057-0.049-0.13-0.124-0.252-0.229-0.357z"></path>
</symbol>
<symbol id="icon-microsoftexcel" viewBox="0 0 32 32">
<path fill="#217346" style="fill: var(--color1, #217346)" d="M31.404 4.136h-10.72v1.984h3.16v3.139h-3.16v1h3.16v3.143h-3.16v1.028h3.16v2.972h-3.16v1.191h3.16v2.979h-3.16v1.191h3.16v2.996h-3.16v2.185h10.72c0.169-0.051 0.311-0.251 0.424-0.597 0.113-0.349 0.172-0.633 0.172-0.848v-21.999c0-0.171-0.059-0.273-0.172-0.309-0.113-0.035-0.255-0.053-0.424-0.053zM30.013 25.755h-5.143v-2.993h5.143v2.996zM30.013 21.571h-5.143v-2.98h5.143zM30.013 17.4h-5.143v-2.959h5.143v2.961zM30.013 13.4h-5.143v-3.139h5.143v3.14zM30.013 9.241h-5.143v-3.12h5.143v3.14zM0 3.641v24.801l18.88 3.265v-31.416l-18.88 3.36zM11.191 22.403c-0.072-0.195-0.411-1.021-1.011-2.484-0.599-1.461-0.96-2.312-1.065-2.555h-0.033l-2.025 4.82-2.707-0.183 3.211-6-2.94-6 2.76-0.145 1.824 4.695h0.036l2.060-4.908 2.852-0.18-3.396 6.493 3.5 6.624-3.065-0.18z"></path>
</symbol>
<symbol id="icon-microsoftword" viewBox="0 0 32 32">
<path fill="#2b579a" style="fill: var(--color2, #2b579a)" d="M31.999 4.977v22.063c0 0.188-0.067 0.34-0.199 0.461-0.135 0.125-0.295 0.184-0.48 0.184h-11.412v-3.060h9.309v-1.393h-9.317v-1.705h9.309v-1.392h-9.303v-1.72h9.307v-1.376h-9.307v-1.724h9.307v-1.392h-9.307v-1.705h9.307v-1.391h-9.307v-1.74h9.307v-1.325h-9.307v-3.457h11.416c0.199 0 0.36 0.064 0.477 0.199 0.14 0.132 0.2 0.293 0.199 0.475zM18.2 0.855v30.296l-18.2-3.149v-23.912l18.2-3.24zM15.453 9.799l-2.279 0.14-1.461 9.047h-0.033c-0.072-0.428-0.34-1.927-0.82-4.489l-0.852-4.351-2.139 0.107-0.856 4.244c-0.5 2.472-0.779 3.911-0.852 4.315h-0.020l-1.3-8.333-1.96 0.104 2.1 10.511 2.179 0.14 0.82-4.091c0.48-2.4 0.76-3.795 0.82-4.176h0.060c0.081 0.407 0.341 1.832 0.82 4.28l0.82 4.211 2.36 0.14 2.64-11.8z"></path>
</symbol>
<symbol id="icon-printer" viewBox="0 0 24 24">
<path d="M22 9h-2v-8h-16v8h-2c-1.1 0-2 0.9-2 2v10c0 1.1 0.675 2 1.5 2h2.5v1h16v-1h2.5c0.825 0 1.5-0.9 1.5-2v-10c0-1.1-0.9-2-2-2zM4 22h-1v-5h1v5zM18 22h-12v-5h2v1h8v-1h2v5zM18 9h-12v-6h12v6zM21 22h-1v-5h1v5zM22 12h-2v-1h2v1zM8 20h8v-1h-8v1z"></path>
</symbol>
<symbol id="icon-add_alert" viewBox="0 0 24 24">
<path d="M15.984 13.031v-2.016h-3v-3h-1.969v3h-3v2.016h3v3h1.969v-3h3zM18.891 16.828l2.109 2.109v1.078h-18v-1.078l2.109-2.109v-5.813q0-2.25 1.547-4.219t3.75-2.484v-0.703q0-0.656 0.469-1.125t1.125-0.469 1.125 0.469 0.469 1.125v0.703q2.297 0.516 3.797 2.414t1.5 4.289v5.813zM10.031 21h3.938q0 0.797-0.586 1.406t-1.383 0.609-1.383-0.609-0.586-1.406z"></path>
</symbol>
<symbol id="icon-play_arrow" viewBox="0 0 24 24">
<path d="M8.016 5.016l10.969 6.984-10.969 6.984v-13.969z"></path>
</symbol>
<symbol id="icon-clear" viewBox="0 0 24 24">
<path d="M18.984 6.422l-5.578 5.578 5.578 5.578-1.406 1.406-5.578-5.578-5.578 5.578-1.406-1.406 5.578-5.578-5.578-5.578 1.406-1.406 5.578 5.578 5.578-5.578z"></path>
</symbol>
<symbol id="icon-create" viewBox="0 0 24 24">
<path d="M20.719 7.031l-1.828 1.828-3.75-3.75 1.828-1.828q0.281-0.281 0.703-0.281t0.703 0.281l2.344 2.344q0.281 0.281 0.281 0.703t-0.281 0.703zM3 17.25l11.063-11.063 3.75 3.75-11.063 11.063h-3.75v-3.75z"></path>
</symbol>
<symbol id="icon-send" viewBox="0 0 24 24">
<path d="M2.016 21v-6.984l15-2.016-15-2.016v-6.984l21 9z"></path>
</symbol>
<symbol id="icon-delete" viewBox="0 0 24 24">
<path d="M18.984 3.984v2.016h-13.969v-2.016h3.469l1.031-0.984h4.969l1.031 0.984h3.469zM6 18.984v-12h12v12q0 0.797-0.609 1.406t-1.406 0.609h-7.969q-0.797 0-1.406-0.609t-0.609-1.406z"></path>
</symbol>
<symbol id="icon-filter_alt" viewBox="0 0 24 24">
<path d="M4.266 5.625q0.609 0.75 1.359 1.734t1.523 1.969 1.406 1.828 1.031 1.336l0.398 0.492v6q0 0.422 0.305 0.727t0.727 0.305h1.969q0.422 0 0.727-0.305t0.305-0.727v-6l0.398-0.492t1.031-1.336 1.406-1.828 1.523-1.969 1.359-1.734q0.281-0.328 0.234-0.703t-0.328-0.656-0.703-0.281h-13.875q-0.422 0-0.703 0.281t-0.328 0.656 0.234 0.703z"></path>
</symbol>
<symbol id="icon-chart-bar" viewBox="0 0 20 20">
<path d="M1 10h3v10h-3v-10zM6 0h3v20h-3v-20zM11 8h3v12h-3v-12zM16 4h3v16h-3v-16z"></path>
</symbol>
<symbol id="icon-chart-pie" viewBox="0 0 20 20">
<path d="M19.95 11c-0.525 5.076-4.779 9-9.95 9-5.523 0-10-4.477-10-10 0-5.171 3.924-9.425 8.957-9.946l0.043-0.004v10.95h10.95zM19.87 8.4h-8.27v-8.27c4.252 0.708 7.562 4.018 8.262 8.212l0.008 0.058z"></path>
</symbol>
<symbol id="icon-cheveron-down" viewBox="0 0 20 20">
<path d="M9.293 12.95l0.707 0.707 5.657-5.657-1.414-1.414-4.243 4.242-4.243-4.242-1.414 1.414z"></path>
</symbol>
<symbol id="icon-view-show" viewBox="0 0 20 20">
<path d="M0.2 10c1.86-3.592 5.548-6.004 9.8-6.004s7.94 2.412 9.771 5.943l0.029 0.061c-1.86 3.592-5.548 6.004-9.8 6.004s-7.94-2.412-9.771-5.943l-0.029-0.061zM10 14c2.209 0 4-1.791 4-4s-1.791-4-4-4v0c-2.209 0-4 1.791-4 4s1.791 4 4 4v0zM10 12c-1.105 0-2-0.895-2-2s0.895-2 2-2v0c1.105 0 2 0.895 2 2s-0.895 2-2 2v0z"></path>
</symbol>
<symbol id="icon-remove-user" viewBox="0 0 20 20">
<path d="M15.989 19.129c0-2.246-2.187-3.389-4.317-4.307-2.123-0.914-2.801-1.684-2.801-3.334 0-0.989 0.648-0.667 0.932-2.481 0.12-0.752 0.692-0.012 0.802-1.729 0-0.684-0.313-0.854-0.313-0.854s0.159-1.013 0.221-1.793c0.064-0.817-0.398-2.56-2.301-3.095-0.332-0.341-0.557-0.882 0.467-1.424-2.24-0.104-2.761 1.068-3.954 1.93-1.015 0.756-1.289 1.953-1.24 2.59 0.065 0.78 0.223 1.793 0.223 1.793s-0.314 0.17-0.314 0.854c0.11 1.718 0.684 0.977 0.803 1.729 0.284 1.814 0.933 1.492 0.933 2.481 0 1.65-0.212 2.21-2.336 3.124-2.131 0.917-2.794 2.387-2.783 4.516 0.003 0.637-0.011 0.871-0.011 0.871h16c0 0-0.011-0.234-0.011-0.871zM16 10.039l-2.299-2.398-1.061 1.061 2.399 2.298-2.398 2.298 1.061 1.061 2.298-2.398 2.298 2.398 1.061-1.061-2.398-2.298 2.397-2.298-1.061-1.061-2.297 2.398z"></path>
</symbol>
<symbol id="icon-add-user" viewBox="0 0 20 20">
<path d="M15.989 19.129c0.011-2.129-2.186-3.389-4.317-4.307-2.123-0.914-2.801-1.684-2.801-3.334 0-0.989 0.648-0.667 0.932-2.481 0.12-0.752 0.692-0.012 0.802-1.729 0-0.684-0.313-0.854-0.313-0.854s0.159-1.013 0.221-1.793c0.064-0.817-0.398-2.56-2.301-3.095-0.332-0.341-0.557-0.882 0.467-1.424-2.24-0.104-2.761 1.068-3.954 1.93-1.015 0.756-1.289 1.953-1.24 2.59 0.065 0.78 0.223 1.793 0.223 1.793s-0.314 0.17-0.314 0.854c0.11 1.718 0.684 0.977 0.803 1.729 0.284 1.814 0.933 1.492 0.933 2.481 0 1.65-0.212 2.21-2.336 3.124-2.131 0.917-2.794 2.387-2.783 4.516 0.003 0.637-0.011 0.871-0.011 0.871h16c0 0-0.014-0.234-0.011-0.871zM17 10v-3h-2v3h-3v2h3v3h2v-3h3v-2h-3z"></path>
</symbol>
<symbol id="icon-plus2" viewBox="0 0 20 20">
<path d="M16 10c0 0.553-0.048 1-0.601 1h-4.399v4.399c0 0.552-0.447 0.601-1 0.601s-1-0.049-1-0.601v-4.399h-4.399c-0.552 0-0.601-0.447-0.601-1s0.049-1 0.601-1h4.399v-4.399c0-0.553 0.447-0.601 1-0.601s1 0.048 1 0.601v4.399h4.399c0.553 0 0.601 0.447 0.601 1z"></path>
</symbol>
<symbol id="icon-line-chart" viewBox="0 0 32 28">
<path d="M32 24v2h-32v-24h2v22h30zM30 4.5v6.797c0 0.438-0.531 0.672-0.859 0.344l-1.891-1.891-9.891 9.891c-0.203 0.203-0.516 0.203-0.719 0l-3.641-3.641-6.5 6.5-3-3 9.141-9.141c0.203-0.203 0.516-0.203 0.719 0l3.641 3.641 7.25-7.25-1.891-1.891c-0.328-0.328-0.094-0.859 0.344-0.859h6.797c0.281 0 0.5 0.219 0.5 0.5z"></path>
</symbol>
<symbol id="icon-file-pdf-o" viewBox="0 0 24 28">
<path d="M22.937 5.938c0.578 0.578 1.062 1.734 1.062 2.562v18c0 0.828-0.672 1.5-1.5 1.5h-21c-0.828 0-1.5-0.672-1.5-1.5v-25c0-0.828 0.672-1.5 1.5-1.5h14c0.828 0 1.984 0.484 2.562 1.062zM16 2.125v5.875h5.875c-0.094-0.266-0.234-0.531-0.344-0.641l-4.891-4.891c-0.109-0.109-0.375-0.25-0.641-0.344zM22 26v-16h-6.5c-0.828 0-1.5-0.672-1.5-1.5v-6.5h-12v24h20zM13.969 16.734c0.391 0.313 0.828 0.594 1.312 0.875 0.656-0.078 1.266-0.109 1.828-0.109 1.047 0 2.375 0.125 2.766 0.766 0.109 0.156 0.203 0.438 0.031 0.812-0.016 0.016-0.031 0.047-0.047 0.063v0.016c-0.047 0.281-0.281 0.594-1.109 0.594-1 0-2.516-0.453-3.828-1.141-2.172 0.234-4.453 0.719-6.125 1.297-1.609 2.75-2.844 4.094-3.781 4.094-0.156 0-0.297-0.031-0.438-0.109l-0.375-0.187c-0.047-0.016-0.063-0.047-0.094-0.078-0.078-0.078-0.141-0.25-0.094-0.562 0.156-0.719 1-1.922 2.938-2.938 0.125-0.078 0.281-0.031 0.359 0.094 0.016 0.016 0.031 0.047 0.031 0.063 0.484-0.797 1.047-1.813 1.672-3.078 0.703-1.406 1.25-2.781 1.625-4.094-0.5-1.703-0.656-3.453-0.375-4.484 0.109-0.391 0.344-0.625 0.656-0.625h0.344c0.234 0 0.422 0.078 0.547 0.234 0.187 0.219 0.234 0.562 0.141 1.062-0.016 0.047-0.031 0.094-0.063 0.125 0.016 0.047 0.016 0.078 0.016 0.125v0.469c-0.016 0.984-0.031 1.922-0.219 3 0.547 1.641 1.359 2.969 2.281 3.719zM4.969 23.156c0.469-0.219 1.141-0.891 2.141-2.469-1.172 0.906-1.906 1.937-2.141 2.469zM11.188 8.781c-0.156 0.438-0.156 1.188-0.031 2.063 0.047-0.25 0.078-0.484 0.109-0.688 0.031-0.266 0.078-0.484 0.109-0.672 0.016-0.047 0.031-0.078 0.063-0.125-0.016-0.016-0.016-0.047-0.031-0.078-0.016-0.281-0.109-0.453-0.203-0.562 0 0.031-0.016 0.047-0.016 0.063zM9.25 19.109c1.375-0.547 2.906-0.984 4.438-1.266-0.156-0.125-0.313-0.234-0.453-0.359-0.766-0.672-1.453-1.609-1.984-2.75-0.297 0.953-0.734 1.969-1.297 3.078-0.234 0.438-0.469 0.875-0.703 1.297zM19.344 18.859c-0.078-0.078-0.484-0.375-2.188-0.375 0.766 0.281 1.469 0.438 1.937 0.438 0.141 0 0.219 0 0.281-0.016 0-0.016-0.016-0.031-0.031-0.047z"></path>
</symbol>
<symbol id="icon-bell-o" viewBox="0 0 28 28">
<path d="M14.25 26.5c0-0.141-0.109-0.25-0.25-0.25-1.234 0-2.25-1.016-2.25-2.25 0-0.141-0.109-0.25-0.25-0.25s-0.25 0.109-0.25 0.25c0 1.516 1.234 2.75 2.75 2.75 0.141 0 0.25-0.109 0.25-0.25zM3.844 22h20.312c-2.797-3.156-4.156-7.438-4.156-13 0-2.016-1.906-5-6-5s-6 2.984-6 5c0 5.563-1.359 9.844-4.156 13zM27 22c0 1.094-0.906 2-2 2h-7c0 2.203-1.797 4-4 4s-4-1.797-4-4h-7c-1.094 0-2-0.906-2-2 2.312-1.953 5-5.453 5-13 0-3 2.484-6.281 6.625-6.891-0.078-0.187-0.125-0.391-0.125-0.609 0-0.828 0.672-1.5 1.5-1.5s1.5 0.672 1.5 1.5c0 0.219-0.047 0.422-0.125 0.609 4.141 0.609 6.625 3.891 6.625 6.891 0 7.547 2.688 11.047 5 13z"></path>
</symbol>
<symbol id="icon-search" viewBox="0 0 32 32">
<path d="M19.427 20.427c-1.39 0.99-3.090 1.573-4.927 1.573-4.694 0-8.5-3.806-8.5-8.5s3.806-8.5 8.5-8.5c4.694 0 8.5 3.806 8.5 8.5 0 1.837-0.583 3.537-1.573 4.927l5.585 5.585c0.55 0.55 0.546 1.431-0 1.976l-0.023 0.023c-0.544 0.544-1.431 0.546-1.976 0l-5.585-5.585zM14.5 20c3.59 0 6.5-2.91 6.5-6.5s-2.91-6.5-6.5-6.5c-3.59 0-6.5 2.91-6.5 6.5s2.91 6.5 6.5 6.5v0z"></path>
</symbol>
</defs>
</svg>
